<svg width="40" height="40" viewBox="0 0 40 40" fill="none" xmlns="http://www.w3.org/2000/svg">
<path fill-rule="evenodd" clip-rule="evenodd" d="M27.578 9.5C25.7586 9.5 22.9997 10.3073 21.3207 13.4249C21.059 13.9107 20.5518 14.2136 20 14.2136C19.4482 14.2136 18.941 13.9107 18.6793 13.4249C17.0005 10.3075 14.2415 9.50077 12.4218 9.50077C10.553 9.50077 8.78036 10.1933 7.48911 11.3962C6.2916 12.5117 5.5 14.5312 5.5 16.7746C5.5 20.6316 8.08172 27.3616 20 32.3769C31.9186 27.3615 34.5 20.6313 34.5 16.7741C34.5 14.5306 33.7084 12.511 32.5108 11.3955C31.2195 10.1925 29.4468 9.5 27.578 9.5ZM20 10.0515C22.3098 7.31893 25.384 6.5 27.578 6.5C30.1765 6.5 32.6881 7.46061 34.5557 9.20033C36.517 11.0274 37.5 13.9359 37.5 16.7741C37.5 22.2364 33.7639 30.0276 20.5646 35.3897C20.2026 35.5368 19.7975 35.5368 19.4354 35.3897C6.23646 30.0278 2.5 22.2368 2.5 16.7746C2.5 13.9365 3.48299 11.028 5.44425 9.20103C7.31178 7.46135 9.82332 6.50077 12.4218 6.50077C14.6155 6.50077 17.69 7.31901 20 10.0515Z" fill="white"/>
</svg>
