<svg width="40" height="40" viewBox="0 0 40 40" fill="none" xmlns="http://www.w3.org/2000/svg">
<path fill-rule="evenodd" clip-rule="evenodd" d="M20 5.5C11.9919 5.5 5.5 11.9919 5.5 20C5.5 22.6449 6.2068 25.1202 7.44083 27.2522C7.64041 27.597 7.69462 28.007 7.59151 28.3919L6.34546 33.0422C6.24584 33.4139 6.58605 33.7542 6.95784 33.6545L11.6081 32.4085C11.993 32.3054 12.403 32.3596 12.7478 32.5592C14.8798 33.7932 17.3551 34.5 20 34.5C28.0081 34.5 34.5 28.0081 34.5 20C34.5 11.9919 28.0081 5.5 20 5.5ZM2.5 20C2.5 10.335 10.335 2.5 20 2.5C29.665 2.5 37.5 10.335 37.5 20C37.5 29.665 29.665 37.5 20 37.5C17.0393 37.5 14.2467 36.7636 11.7992 35.4631L7.73429 36.5523C5.1318 37.2497 2.75035 34.8682 3.44769 32.2657L4.53687 28.2008C3.23642 25.7533 2.5 22.9607 2.5 20Z" fill="white"/>
<path d="M16 20C16 21.1046 15.1046 22 14 22C12.8954 22 12 21.1046 12 20C12 18.8954 12.8954 18 14 18C15.1046 18 16 18.8954 16 20Z" fill="white"/>
<path d="M28 20C28 21.1046 27.1046 22 26 22C24.8954 22 24 21.1046 24 20C24 18.8954 24.8954 18 26 18C27.1046 18 28 18.8954 28 20Z" fill="white"/>
<path d="M22 20C22 21.1046 21.1046 22 20 22C18.8954 22 18 21.1046 18 20C18 18.8954 18.8954 18 20 18C21.1046 18 22 18.8954 22 20Z" fill="white"/>
</svg>
