<svg width="619" height="143" viewBox="0 0 619 143" fill="none" xmlns="http://www.w3.org/2000/svg">
<path d="M402.324 116.111C398.014 116.111 394.524 112.658 394.524 108.393C394.524 89.4889 378.974 74.1022 359.868 74.1022C340.763 74.1022 325.212 89.4889 325.212 108.393C325.212 112.658 321.723 116.111 317.413 116.111C313.102 116.111 309.613 112.658 309.613 108.393C309.613 80.975 332.158 58.6667 359.868 58.6667C387.578 58.6667 410.124 80.975 410.124 108.393C410.124 112.658 406.634 116.111 402.324 116.111Z" fill="#15BF70"/>
<path d="M522.279 116.111C520.26 116.111 518.24 115.356 516.695 113.853L473.723 71.8453C470.64 68.8314 470.64 63.9409 473.723 60.9271C476.806 57.9132 481.801 57.9132 484.892 60.9271L522.279 97.4754L559.666 60.9271C562.749 57.9132 567.744 57.9132 570.835 60.9271C573.918 63.9409 573.918 68.8314 570.835 71.8453L527.864 113.853C526.318 115.356 524.299 116.111 522.279 116.111Z" fill="#2E6FF2"/>
<path d="M441.38 116.111C436.977 116.111 433.413 112.659 433.413 108.395V65.1605C433.413 60.8964 436.977 57.4444 441.38 57.4444C445.783 57.4444 449.347 60.8964 449.347 65.1605V108.395C449.347 112.659 445.783 116.111 441.38 116.111Z" fill="#FFC533"/>
<path d="M442 46C447.799 46 452.5 41.299 452.5 35.5C452.5 29.701 447.799 25 442 25C436.201 25 431.5 29.701 431.5 35.5C431.5 41.299 436.201 46 442 46Z" fill="#FFC533"/>
<path d="M584 116C589.799 116 594.5 111.299 594.5 105.5C594.5 99.701 589.799 95 584 95C578.201 95 573.5 99.701 573.5 105.5C573.5 111.299 578.201 116 584 116Z" fill="#FFC533"/>
<path d="M260.376 118.56C256.195 118.56 252.013 117.747 248.021 116.122C239.889 112.814 233.526 106.52 230.104 98.4018C226.683 90.2838 226.617 81.3283 229.923 73.1606C233.212 65.0011 239.484 58.6162 247.567 55.1832C255.649 51.7503 264.583 51.684 272.723 55.0008C280.855 58.3094 287.218 64.6031 290.64 72.7211C292.243 76.5189 290.466 80.8971 286.689 82.4975L248.17 98.8413C249.74 100.292 251.575 101.462 253.608 102.291C258.062 104.107 262.955 104.065 267.376 102.191C271.467 100.458 274.764 97.2824 276.648 93.2524C278.392 89.521 282.822 87.9206 286.541 89.6702C290.26 91.4199 291.855 95.8644 290.111 99.5959C286.665 106.959 280.64 112.764 273.169 115.94C269.054 117.689 264.715 118.56 260.376 118.56ZM253.36 68.9316C248.939 70.8139 245.501 74.3049 243.691 78.7744C242.864 80.8142 242.426 82.9536 242.368 85.093L272.566 72.2816C270.996 70.8305 269.153 69.6945 267.128 68.8321C264.665 67.7873 259.351 66.3776 253.36 68.9316Z" fill="#2E6FF2"/>
<path d="M203.65 58.5556C199.29 58.5556 195.761 62.0082 195.761 66.2733C195.761 85.1777 180.033 100.564 160.71 100.564C141.386 100.564 125.658 85.1777 125.658 66.2733C125.658 62.0082 122.129 58.5556 117.769 58.5556C113.41 58.5556 109.88 62.0082 109.88 66.2733C109.88 85.1777 94.1526 100.564 74.8291 100.564C55.5056 100.564 39.7777 85.1777 39.7777 66.2733C39.7777 62.0082 36.2485 58.5556 31.8888 58.5556C27.5292 58.5556 24 62.0082 24 66.2733C24 93.6916 46.8029 116 74.8291 116C92.8821 116 108.751 106.739 117.769 92.8305C126.788 106.739 142.665 116 160.71 116C188.736 116 211.539 93.6916 211.539 66.2733C211.539 62.0082 208.009 58.5556 203.65 58.5556Z" fill="#FFC533"/>
</svg>
